<svg width="15" height="9" viewBox="0 0 15 9" fill="none" xmlns="http://www.w3.org/2000/svg">
<path d="M0 0.833333C0 0.373096 0.373096 0 0.833333 0H14.1667C14.6269 0 15 0.373096 15 0.833333C15 1.29357 14.6269 1.66667 14.1667 1.66667H0.833334C0.373096 1.66667 0 1.29357 0 0.833333Z" fill="black"/>
<path d="M0 4.16666C0 3.70642 0.373096 3.33333 0.833333 3.33333H10.8333C11.2936 3.33333 11.6667 3.70642 11.6667 4.16666C11.6667 4.6269 11.2936 4.99999 10.8333 4.99999H0.833334C0.373096 4.99999 0 4.6269 0 4.16666Z" fill="black"/>
<path d="M0 7.49999C0 7.03975 0.373096 6.66665 0.833333 6.66665H12.5C12.9602 6.66665 13.3333 7.03975 13.3333 7.49999C13.3333 7.96023 12.9602 8.33332 12.5 8.33332H0.833333C0.373096 8.33332 0 7.96023 0 7.49999Z" fill="black"/>
</svg>
